<svg xmlns:xlink="http://www.w3.org/1999/xlink" xmlns="http://www.w3.org/2000/svg" width="700" height="500"><defs><path id="b" fill="#5887c9" d="M0 0h40v30h-40z"/><path id="a" fill="#5fb97c" d="M0 0h230v110h-230z"/></defs><g><use xlink:href="#a" x="-75" y="75"/><use xlink:href="#a" x="165" y="75"/><use xlink:href="#a" x="405" y="75"/><use xlink:href="#a" x="645" y="75"/></g><g><use xlink:href="#b" x="115" y="195"/><use xlink:href="#b" x="160" y="195"/><use xlink:href="#b" x="205" y="195"/><use xlink:href="#b" x="250" y="195"/><use xlink:href="#b" x="295" y="195"/><use xlink:href="#b" x="340" y="195"/><use xlink:href="#b" x="385" y="195"/></g><path fill="#ff0" d="M220 100h120v60h-120z"/><g stroke="#000" fill="none"><path d="M160 70h240v160h-240zM160 190h240zM220 70v120"/><path d="M340 70v120"/></g><path fill="rgba(255,255,255,0.5)" d="M160 70h240v160h-240zm-160-70v500h700v-500z"/></svg>