<svg xmlns="http://www.w3.org/2000/svg" width="90" height="90" opacity="0.85"><circle fill="#9dd15f" cx="45" cy="45" r="45"/><path fill="#fff" d="M31.3 33.34c4.09-5.39 12.74-6 17.51-1.2 4.58 4.12 4.79 11.46 1.12 16.24 1.28 1.1 3 1.37 4.38 2.3 2.14 1.94 4.04 4.12 6.15 6.1-1.27 1.24-2.53 2.49-3.79 3.73-2.31-2.34-4.64-4.65-7.01-6.92 0-.58.01-1.75.02-2.34-.37-.26-1.1-.8-1.46-1.07-4.11 2.87-9.86 3.55-14.12.61-5.82-3.54-7.26-12.28-2.8-17.45z"/><path fill="#9dd15f" d="M36.39 33.51c4.19-2.61 10.2-.39 11.91 4.18 1.88 4.38-.82 9.9-5.41 11.13-4.65 1.6-10.09-1.94-10.65-6.79-.58-3.36 1.2-6.87 4.15-8.52z"/></svg>